Run_40001
nRows=4
nColumns=164

# SIMM Motion File Header:
name Run_40001
datacolumns 164
datarows 4
otherdata 1
range 1.47500000 1.50000000
endheader
time	pelvis_tilt	pelvis_list	pelvis_rotation	pelvis_tx	pelvis_ty	pelvis_tz	hip_flexion_r	hip_adduction_r	hip_rotation_r	knee_angle_r	ankle_angle_r	hip_flexion_l	hip_adduction_l	hip_rotation_l	knee_angle_l	ankle_angle_l	lumbar_extension	lumbar_bending	lumbar_rotation	arm_flex_r	arm_add_r	arm_rot_r	elbow_flex_r	pro_sup_r	arm_flex_l	arm_add_l	arm_rot_l	elbow_flex_l	pro_sup_l	subtalar_angle_r	mtp_angle_r	subtalar_angle_l	mtp_angle_l	wrist_flex_r	wrist_dev_r	wrist_flex_l	wrist_dev_l	LASI_tx	LASI_ty	LASI_tz	RASI_tx	RASI_ty	RASI_tz	LPSI_tx	LPSI_ty	LPSI_tz	RPSI_tx	RPSI_ty	RPSI_tz	RTH1_tx	RTH1_ty	RTH1_tz	RTH2_tx	RTH2_ty	RTH2_tz	RTH3_tx	RTH3_ty	RTH3_tz	LTH1_tx	LTH1_ty	LTH1_tz	LTH2_tx	LTH2_ty	LTH2_tz	LTH3_tx	LTH3_ty	LTH3_tz	RTB1_tx	RTB1_ty	RTB1_tz	RTB2_tx	RTB2_ty	RTB2_tz	RTB3_tx	RTB3_ty	RTB3_tz	LTB1_tx	LTB1_ty	LTB1_tz	LTB2_tx	LTB2_ty	LTB2_tz	LTB3_tx	LTB3_ty	LTB3_tz	RCAL_tx	RCAL_ty	RCAL_tz	RTOE_tx	RTOE_ty	RTOE_tz	RMT5_tx	RMT5_ty	RMT5_tz	LCAL_tx	LCAL_ty	LCAL_tz	LTOE_tx	LTOE_ty	LTOE_tz	LMT5_tx	LMT5_ty	LMT5_tz	LACR_tx	LACR_ty	LACR_tz	RACR_tx	RACR_ty	RACR_tz	CLAV_tx	CLAV_ty	CLAV_tz	C7_tx	C7_ty	C7_tz	RUA1_tx	RUA1_ty	RUA1_tz	RUA2_tx	RUA2_ty	RUA2_tz	RUA3_tx	RUA3_ty	RUA3_tz	RLEL_tx	RLEL_ty	RLEL_tz	RMEL_tx	RMEL_ty	RMEL_tz	LUA1_tx	LUA1_ty	LUA1_tz	LUA2_tx	LUA2_ty	LUA2_tz	LUA3_tx	LUA3_ty	LUA3_tz	LLEL_tx	LLEL_ty	LLEL_tz	LMEL_tx	LMEL_ty	LMEL_tz	RFAsuperior_tx	RFAsuperior_ty	RFAsuperior_tz	RFAradius_tx	RFAradius_ty	RFAradius_tz	RFAulna_tx	RFAulna_ty	RFAulna_tz	LFAsuperior_tx	LFAsuperior_ty	LFAsuperior_tz	LFAradius_tx	LFAradius_ty	LFAradius_tz	LFAulna_tx	LFAulna_ty	LFAulna_tz
      1.47500000	     -6.36716529	     -5.58534371	     -5.39867172	      1.08144042	      0.94682673	     -0.33196313	      8.14790985	     13.31221770	      6.21634039	    -40.02788728	     20.60651432	     47.71621985	     -8.12695704	     -2.16180673	   -126.45525539	     -4.05492607	     -6.16646267	      9.12372913	     12.04199181	    -22.47701436	    -11.47323250	    -10.64833472	     85.43781487	     72.65877278	    -40.06506525	    -17.61461650	     -0.01073344	     87.45223334	     95.67156371	      0.00000000	      0.00000000	      0.00000000	      0.00000000	      0.00000000	      0.00000000	      0.00000000	      0.00000000	      1.09760168	      0.95408066	     -0.44813637	      1.07794374	      0.96196269	     -0.20722659	      0.92773168	      1.00161042	     -0.40050833	      0.91948862	      1.00453443	     -0.30277328	      1.00188580	      0.80772461	     -0.16726692	      1.06666309	      0.65920846	     -0.19420104	      1.00170649	      0.56825762	     -0.21982118	      1.08404417	      0.80056758	     -0.51288320	      1.21435514	      0.76466255	     -0.49946145	      1.22490609	      0.63226952	     -0.50116274	      0.98917907	      0.33774784	     -0.29594521	      0.91298957	      0.31183684	     -0.24353269	      0.86988063	      0.20049246	     -0.31187871	      1.19199756	      0.48157791	     -0.43602390	      1.08622313	      0.51142422	     -0.47895775	      0.99585684	      0.47352857	     -0.41297839	      0.68244155	      0.12344118	     -0.33906305	      0.88881465	      0.07547605	     -0.35655748	      0.86318723	      0.04318671	     -0.25205411	      0.84896386	      0.57182107	     -0.39540084	      0.86303411	      0.36512883	     -0.37397050	      0.83545176	      0.37602760	     -0.47919463	      1.07159399	      1.44666211	     -0.50568633	      1.09103208	      1.42211101	     -0.13605075	      1.15508154	      1.38673860	     -0.30410786	      1.03972311	      1.47619742	     -0.32642309	      1.06329993	      1.33334347	     -0.09439691	      1.06819720	      1.24372592	     -0.11399344	      0.98032122	      1.24585345	     -0.08890821	      0.95269227	      1.13452383	     -0.07268380	      0.93148762	      1.13236468	     -0.13795387	      1.01674441	      1.39202168	     -0.55558055	      0.94639573	      1.36004576	     -0.51791226	      0.96709196	      1.30257091	     -0.57773508	      0.85767755	      1.24740022	     -0.60437919	      0.83587082	      1.24548048	     -0.53486697	      1.04446893	      1.10065291	     -0.07548629	      1.18192983	      1.00058325	     -0.12431578	      1.13634058	      0.94787848	     -0.12334491	      0.91779134	      1.18520035	     -0.60799642	      1.02430433	      1.02751329	     -0.54337237	      0.96873321	      1.00531510	     -0.57757024
      1.48333300	     -6.60358133	     -4.74933503	     -5.05169208	      1.08294662	      0.95148805	     -0.33238408	      5.05160567	     11.99744393	      6.80468490	    -37.48527384	     18.23701212	     50.27879817	     -7.25339717	     -2.23002719	   -123.51013347	     -3.82937675	     -5.45409231	      8.09525961	     12.91536112	    -22.28358398	    -11.28628219	    -11.56140418	     88.47891970	     74.59678345	    -41.67412762	    -18.01281477	     -1.14926777	     88.73344533	     95.64493713	      0.00000000	      0.00000000	      0.00000000	      0.00000000	      0.00000000	      0.00000000	      0.00000000	      0.00000000	      1.09849271	      0.95969213	     -0.44845506	      1.07988612	      0.96409535	     -0.20743609	      0.92862744	      1.00681009	     -0.39989577	      0.92138892	      1.00914802	     -0.30244066	      0.99820038	      0.81127710	     -0.16751860	      1.05428074	      0.66064427	     -0.19521571	      0.98398101	      0.57303471	     -0.21968900	      1.08833041	      0.80880968	     -0.51426960	      1.21985420	      0.78014784	     -0.49923693	      1.23711175	      0.64859955	     -0.50318555	      0.96312106	      0.34175892	     -0.29413857	      0.88606851	      0.31795130	     -0.24151682	      0.84164105	      0.20643287	     -0.30941952	      1.21278903	      0.48983596	     -0.43592042	      1.10419143	      0.51032091	     -0.47905121	      1.01762555	      0.46391975	     -0.41340360	      0.65345057	      0.13414863	     -0.33628804	      0.85642368	      0.07657296	     -0.35550149	      0.82946556	      0.04319521	     -0.25135176	      0.86199153	      0.54819954	     -0.39473741	      0.89668653	      0.34398802	     -0.37532157	      0.86683296	      0.35268918	     -0.47999462	      1.06708448	      1.45263542	     -0.50588729	      1.09459487	      1.42878220	     -0.13751079	      1.15502814	      1.39272528	     -0.30705430	      1.03910850	      1.48094591	     -0.32665441	      1.06868730	      1.33991492	     -0.09531027	      1.07410215	      1.25072452	     -0.11320413	      0.98582300	      1.25183124	     -0.08891339	      0.96081468	      1.13966032	     -0.07142864	      0.93921481	      1.13694177	     -0.13694165	      1.01026267	      1.40048437	     -0.55454897	      0.94074986	      1.36880061	     -0.51514122	      0.95891057	      1.31194056	     -0.57681983	      0.84759099	      1.25844607	     -0.60039736	      0.82875922	      1.25559573	     -0.53012384	      1.05477966	      1.10982555	     -0.07510121	      1.19724767	      1.01984798	     -0.12886923	      1.15540274	      0.96469010	     -0.12543371	      0.90720177	      1.19613145	     -0.60711128	      1.01645783	      1.03845302	     -0.54697885	      0.96005899	      1.01626564	     -0.57956921
      1.49166700	     -6.76436144	     -3.79659140	     -4.60726705	      1.08498234	      0.95702026	     -0.33283788	      1.90043004	     10.53184695	      7.23227239	    -34.74099306	     14.88639700	     52.35284327	     -6.23767714	     -2.45440138	   -120.01538815	     -3.71958077	     -4.76616001	      6.91801057	     13.62813851	    -22.23165424	    -11.05446066	    -12.38666201	     91.43756357	     76.34828106	    -43.31923088	    -18.50549048	     -2.20317650	     90.27885381	     95.38845679	      0.00000000	      0.00000000	      0.00000000	      0.00000000	      0.00000000	      0.00000000	      0.00000000	      0.00000000	      1.09993637	      0.96628747	     -0.44869658	      1.08236976	      0.96715603	     -0.20763921	      0.92996110	      1.01274495	     -0.39899716	      0.92404750	      1.01440824	     -0.30145087	      0.99492138	      0.81567174	     -0.16793350	      1.04266567	      0.66357105	     -0.19634519	      0.96716952	      0.57957499	     -0.21943894	      1.09282484	      0.81819405	     -0.51585948	      1.22461459	      0.79565288	     -0.49881649	      1.24740896	      0.66500892	     -0.50493971	      0.93798651	      0.34774222	     -0.29232927	      0.86049045	      0.32590521	     -0.23901951	      0.81501699	      0.21398778	     -0.30651323	      1.23243549	      0.49776853	     -0.43575836	      1.12174001	      0.50880172	     -0.47928525	      1.03931162	      0.45384194	     -0.41391641	      0.62645719	      0.14664003	     -0.33315789	      0.82453986	      0.07727886	     -0.35455505	      0.79593146	      0.04319978	     -0.25077892	      0.87709973	      0.52295073	     -0.39422235	      0.93216681	      0.32310888	     -0.37641947	      0.90015686	      0.32911372	     -0.48029771	      1.06279242	      1.45948030	     -0.50594662	      1.09804947	      1.43601199	     -0.13922107	      1.15496974	      1.39955286	     -0.31003670	      1.03848037	      1.48626057	     -0.32711112	      1.07410719	      1.34695393	     -0.09654122	      1.07971997	      1.25833888	     -0.11296325	      0.99107379	      1.25878494	     -0.08900891	      0.96821707	      1.14590134	     -0.07014393	      0.94650168	      1.14306195	     -0.13603182	      1.00426722	      1.40989386	     -0.55336719	      0.93553960	      1.37832653	     -0.51272114	      0.95143444	      1.32214619	     -0.57585462	      0.83841939	      1.27011908	     -0.59647601	      0.82209066	      1.26651732	     -0.52552983	      1.06389137	      1.12017181	     -0.07475459	      1.21041871	      1.04012367	     -0.13341051	      1.17244012	      0.98276239	     -0.12786665	      0.89787228	      1.20813333	     -0.60578566	      1.00981023	      1.05080901	     -0.54975636	      0.95267690	      1.02831641	     -0.58074898
      1.50000000	     -6.86556780	     -2.72274823	     -4.07786984	      1.08744985	      0.96323080	     -0.33332147	     -1.22801777	      8.92258007	      7.39745906	    -31.87086638	     10.53176512	     53.95095832	     -5.08375404	     -2.82631993	   -116.01865937	     -3.70512754	     -4.11342037	      5.58316609	     14.13937953	    -22.25784863	    -10.79716184	    -13.05191810	     94.24229438	     77.81486019	    -45.00541903	    -19.04285391	     -3.19860906	     91.98284064	     94.92245305	      0.00000000	      0.00000000	      0.00000000	      0.00000000	      0.00000000	      0.00000000	      0.00000000	      0.00000000	      1.10182040	      0.97368768	     -0.44883166	      1.08523475	      0.97088505	     -0.20801824	      0.93172309	      1.01924308	     -0.39787393	      0.92720191	      1.02020890	     -0.29987014	      0.99239922	      0.82096384	     -0.16835175	      1.03197364	      0.66781842	     -0.19741386	      0.95158238	      0.58764821	     -0.21864404	      1.09741345	      0.82884041	     -0.51763699	      1.22860614	      0.81066802	     -0.49821319	      1.25555401	      0.68073750	     -0.50623419	      0.91408499	      0.35537027	     -0.29018386	      0.83645571	      0.33529919	     -0.23603664	      0.79041512	      0.22279886	     -0.30308391	      1.25085662	      0.50508925	     -0.43577971	      1.13895220	      0.50661694	     -0.47963975	      1.06139044	      0.44333269	     -0.41452225	      0.60199536	      0.16069545	     -0.32985670	      0.79332155	      0.07748670	     -0.35380745	      0.76264569	      0.04324201	     -0.25040511	      0.89447494	      0.49661173	     -0.39407831	      0.96930360	      0.30289695	     -0.37720465	      0.93560740	      0.30569955	     -0.48013734	      1.05887172	      1.46686238	     -0.50585347	      1.10132291	      1.44370628	     -0.14116373	      1.15494305	      1.40697175	     -0.31295385	      1.03791769	      1.49202161	     -0.32778547	      1.07912928	      1.35456135	     -0.09790056	      1.08494074	      1.26649497	     -0.11332750	      0.99609314	      1.26647149	     -0.08912389	      0.97498124	      1.15305282	     -0.06885093	      0.95335542	      1.15025635	     -0.13515414	      0.99897444	      1.41979042	     -0.55211486	      0.93098749	      1.38843882	     -0.51057930	      0.94480407	      1.33282092	     -0.57481225	      0.83038644	      1.28219127	     -0.59274878	      0.81606022	      1.27807278	     -0.52120996	      1.07192922	      1.13150008	     -0.07454441	      1.22147081	      1.06081754	     -0.13779614	      1.18737964	      1.00144668	     -0.13059915	      0.88983497	      1.22075867	     -0.60410064	      1.00414874	      1.06400542	     -0.55181540	      0.94642343	      1.04105358	     -0.58118327
